<svg width="49" height="39" viewBox="0 0 49 39" fill="none" xmlns="http://www.w3.org/2000/svg">
<path fill-rule="evenodd" clip-rule="evenodd" d="M18.6871 21.1827L15.9842 25.9287C15.3284 24.6007 14.9876 23.1363 14.9886 21.6517C14.989 20.4737 15.2026 19.3057 15.619 18.2056H20.3872L18.6871 21.1827ZM19.4936 23.5257L17.1058 27.6977C17.9337 28.7327 18.9648 29.5825 20.1341 30.1935C21.3033 30.8044 22.5851 31.1631 23.8984 31.2469L21.188 26.5027L19.4936 23.5257ZM23.003 12.1521C21.7052 12.3626 20.4644 12.8424 19.3587 13.5613C18.2529 14.2802 17.306 15.2228 16.5774 16.3297H25.3908L23.003 12.1521ZM22.5247 18.2056L20.5596 21.6517L22.5247 25.0977H26.4735L28.4441 21.6517L26.4735 18.2056H22.5247ZM29.4934 19.7776L31.8757 15.6038C31.0492 14.5686 30.0191 13.7185 28.8507 13.1075C27.6823 12.4966 26.4012 12.138 25.0886 12.0545L27.7934 16.8006L29.4934 19.7776ZM25.9711 31.1493C27.2709 30.9415 28.5141 30.4629 29.6217 29.7438C30.7293 29.0247 31.6774 28.0807 32.4059 26.9717H23.5999L25.9711 31.1493ZM30.2869 22.1206L28.5924 25.0977H33.3551C33.7761 23.9988 33.9917 22.8303 33.991 21.6517C33.992 20.1677 33.6511 18.7039 32.9954 17.3765L30.3054 22.085C30.3029 22.0968 30.3011 22.1087 30.2999 22.1206H30.2869ZM41.5455 6.10418H36.5771C36.2821 6.10418 35.9992 5.9856 35.7906 5.77452C35.582 5.56344 35.4648 5.27715 35.4648 4.97864V4.74791C35.4643 3.49013 34.9708 2.28391 34.0926 1.39383C33.2143 0.503745 32.023 0.00248366 30.78 0H18.2218C16.9777 0.000496124 15.7846 0.500563 14.9045 1.3904C14.0244 2.28024 13.5293 3.48711 13.5278 4.74603V4.97677C13.5278 5.27528 13.4106 5.56157 13.202 5.77265C12.9934 5.98373 12.7105 6.10231 12.4155 6.10231H7.43407C5.46288 6.1038 3.57285 6.89681 2.17901 8.30721C0.785175 9.7176 0.00147305 11.6301 0 13.6247V31.4776C0.00147305 33.4722 0.785175 35.3847 2.17901 36.7951C3.57285 38.2055 5.46288 38.9985 7.43407 39H41.5585C43.5304 38.9985 45.4212 38.2057 46.8162 36.7956C48.2112 35.3854 48.9966 33.4729 49 31.4776V13.6266C48.9966 11.6313 48.2112 9.7188 46.8162 8.30862C45.4212 6.89844 43.5304 6.10567 41.5585 6.10418H41.5455ZM24.4898 32.5675C21.6303 32.5636 18.889 31.4121 16.8674 29.3657C14.8457 27.3194 13.7087 24.5452 13.7058 21.6517C13.7092 18.7585 14.8464 15.9848 16.868 13.9388C18.8896 11.8928 21.6306 10.7416 24.4898 10.7377C27.3502 10.7401 30.0927 11.8906 32.1158 13.9367C34.1389 15.9828 35.2773 18.7573 35.2813 21.6517C35.2778 24.545 34.1407 27.3189 32.1191 29.3652C30.0976 31.4115 27.3566 32.5631 24.4972 32.5675H24.4898Z" fill="#00C0FF"/>
</svg>
