<svg width="49" height="50" viewBox="0 0 49 50" fill="none" xmlns="http://www.w3.org/2000/svg">
<path d="M24.4999 6.20601C22.0841 6.20432 19.6917 6.68925 17.4599 7.63301C15.2281 8.57677 13.2008 9.96079 11.4942 11.7057C9.78773 13.4506 8.43555 15.5221 7.51525 17.8014C6.59494 20.0807 6.1246 22.5229 6.13121 24.9881C6.13787 29.9547 8.07609 34.7156 11.5202 38.2252C14.9642 41.7348 19.6326 43.706 24.4999 43.706C29.3654 43.6959 34.0293 41.7218 37.4732 38.2148C40.9171 34.7078 42.8613 29.9528 42.8812 24.9881C42.8862 22.5223 42.4143 20.0798 41.4926 17.8004C40.5709 15.5211 39.2176 13.4497 37.5101 11.7049C35.8025 9.96019 33.7744 8.57637 31.5419 7.63277C29.3094 6.68917 26.9164 6.20432 24.4999 6.20601ZM30.2417 18.4624C30.7363 17.9603 31.4035 17.675 32.1012 17.6676C32.7976 17.6676 33.4656 17.9499 33.958 18.4524C34.4505 18.9549 34.7271 19.6364 34.7271 20.347C34.7288 20.6994 34.662 21.0486 34.5306 21.3744C34.3992 21.7003 34.2059 21.9964 33.9617 22.2455C33.7176 22.4947 33.4274 22.692 33.1081 22.826C32.7887 22.9601 32.4465 23.0282 32.1012 23.0265C31.4048 23.0265 30.7369 22.7442 30.2444 22.2417C29.752 21.7392 29.4753 21.0577 29.4753 20.347C29.4699 19.9961 29.5351 19.6478 29.6669 19.3236C29.7987 18.9994 29.9944 18.7063 30.2417 18.4624ZM16.8987 17.6676C17.5941 17.6709 18.2601 17.9543 18.7518 18.4561C19.2435 18.9579 19.5212 19.6374 19.5246 20.347C19.5246 21.0577 19.2479 21.7392 18.7554 22.2417C18.263 22.7442 17.5951 23.0265 16.8987 23.0265C16.5544 23.0265 16.2136 22.9571 15.8957 22.8223C15.5778 22.6875 15.2891 22.4899 15.0463 22.2409C14.8035 21.992 14.6112 21.6965 14.4806 21.3715C14.35 21.0464 14.2837 20.6983 14.2853 20.347C14.2886 19.6396 14.5646 18.962 15.0536 18.4606C15.5426 17.9591 16.2054 17.6743 16.8987 17.6676ZM35.7448 30.4881C35.6192 30.7188 32.7169 36.3342 24.4371 36.3342C16.1574 36.3342 13.2802 30.7188 13.1294 30.4881C13.0269 30.2765 13.0089 30.0326 13.0792 29.8078C13.1495 29.5829 13.3027 29.3948 13.5064 29.2829C13.7131 29.1749 13.9533 29.1547 14.1746 29.2268C14.3958 29.2989 14.5802 29.4573 14.6874 29.6675C14.8005 29.8855 17.2756 34.5393 24.412 34.5393C31.5484 34.5393 34.0361 29.8727 34.1366 29.6675C34.1895 29.5633 34.2622 29.4709 34.3505 29.3956C34.4388 29.3204 34.5409 29.2638 34.6508 29.2292C34.7607 29.1946 34.8763 29.1826 34.9908 29.1941C35.1053 29.2055 35.2164 29.2401 35.3176 29.2958C35.5257 29.3864 35.6908 29.5565 35.7777 29.7697C35.8645 29.9829 35.8663 30.2223 35.7825 30.4368L35.7448 30.4881ZM12.2123 0.898322V3.57781C12.2123 3.69507 12.1894 3.81115 12.1451 3.91933C12.1007 4.0275 12.0357 4.12559 11.9539 4.2079C11.8721 4.29022 11.775 4.35511 11.6684 4.3988C11.5617 4.4425 11.4476 4.46412 11.3327 4.46242H4.33455V11.6034C4.33622 11.7207 4.31503 11.8371 4.27221 11.9459C4.22939 12.0547 4.16578 12.1538 4.08512 12.2373C4.00445 12.3208 3.90833 12.3871 3.80232 12.4323C3.69631 12.4776 3.58254 12.5009 3.46763 12.5009H0.841735C0.60848 12.5009 0.384773 12.4063 0.219837 12.238C0.0549011 12.0697 -0.0377487 11.8415 -0.0377487 11.6034V0.898322C-0.0377487 0.660307 0.0549011 0.432041 0.219837 0.263739C0.384773 0.0954376 0.60848 0.000887298 0.841735 0.000887298H11.3327C11.564 -0.00960785 11.79 0.0733395 11.9617 0.23174C12.1334 0.390141 12.2369 0.611223 12.2499 0.847041L12.2123 0.898322ZM12.2123 46.424V49.1034C12.2123 49.3415 12.1196 49.5697 11.9546 49.738C11.7897 49.9063 11.566 50.0009 11.3327 50.0009H0.841735C0.60848 50.0009 0.384773 49.9063 0.219837 49.738C0.0549011 49.5697 -0.0377487 49.3415 -0.0377487 49.1034V38.347C-0.0377487 38.109 0.0549011 37.8808 0.219837 37.7125C0.384773 37.5441 0.60848 37.4496 0.841735 37.4496H3.46763C3.58254 37.4496 3.69631 37.4729 3.80232 37.5181C3.90833 37.5634 4.00445 37.6297 4.08512 37.7132C4.16578 37.7967 4.22939 37.8958 4.27221 38.0046C4.31503 38.1134 4.33622 38.2298 4.33455 38.347V45.5009H11.3327C11.4497 45.4939 11.5668 45.5113 11.677 45.5518C11.7872 45.5923 11.8883 45.6552 11.974 45.7367C12.0597 45.8182 12.1284 45.9165 12.1758 46.0259C12.2232 46.1352 12.2484 46.2531 12.2499 46.3727L12.2123 46.424ZM48.9622 38.3983V49.1034C48.9622 49.3415 48.8696 49.5697 48.7047 49.738C48.5397 49.9063 48.316 50.0009 48.0828 50.0009H37.5917C37.4762 50.0009 37.3619 49.9777 37.2552 49.9326C37.1485 49.8875 37.0515 49.8214 36.9698 49.738C36.8882 49.6547 36.8234 49.5558 36.7792 49.4469C36.735 49.338 36.7122 49.2213 36.7122 49.1034V46.3727C36.7122 46.2554 36.7351 46.1393 36.7794 46.0312C36.8238 45.923 36.8888 45.8249 36.9706 45.7426C37.0524 45.6603 37.1495 45.5954 37.2561 45.5517C37.3628 45.508 37.4768 45.4864 37.5917 45.4881H44.5899V38.347C44.5883 38.2298 44.6095 38.1134 44.6523 38.0046C44.6951 37.8958 44.7587 37.7967 44.8394 37.7132C44.92 37.6297 45.0162 37.5634 45.1222 37.5181C45.2282 37.4729 45.3419 37.4496 45.4569 37.4496H48.0828C48.2014 37.4444 48.3198 37.4638 48.4309 37.5065C48.542 37.5493 48.6435 37.6146 48.7292 37.6985C48.8149 37.7823 48.883 37.883 48.9296 37.9945C48.9761 38.1059 49 38.2259 48.9999 38.347L48.9622 38.3983ZM48.9622 0.898322V11.6034C48.9622 11.8415 48.8696 12.0697 48.7047 12.238C48.5397 12.4063 48.316 12.5009 48.0828 12.5009H45.4569C45.3419 12.5009 45.2282 12.4776 45.1222 12.4323C45.0162 12.3871 44.92 12.3208 44.8394 12.2373C44.7587 12.1538 44.6951 12.0547 44.6523 11.9459C44.6095 11.8371 44.5883 11.7207 44.5899 11.6034V4.47525H37.5917C37.4768 4.47694 37.3628 4.45532 37.2561 4.41162C37.1495 4.36793 37.0524 4.30304 36.9706 4.22072C36.8888 4.13841 36.8238 4.04032 36.7794 3.93215C36.7351 3.82397 36.7122 3.70789 36.7122 3.59063V0.911142C36.7122 0.673128 36.8049 0.444862 36.9698 0.27656C37.1348 0.108258 37.3585 0.0137081 37.5917 0.0137081H48.0828C48.312 0.00309378 48.5361 0.0842906 48.7075 0.239976C48.8788 0.395661 48.9838 0.613508 48.9999 0.847041L48.9622 0.898322ZM-0.0377487 11.6034V0.898322C-0.0377487 0.660307 0.0549011 0.432041 0.219837 0.263739C0.384773 0.0954376 0.60848 0.000887298 0.841735 0.000887298H11.3327C11.566 0.000887298 11.7897 0.0954376 11.9546 0.263739C12.1196 0.432041 12.2123 0.660307 12.2123 0.898322V3.57781C12.2123 3.69507 12.1894 3.81115 12.1451 3.91933C12.1007 4.0275 12.0357 4.12559 11.9539 4.2079C11.8721 4.29022 11.775 4.35511 11.6684 4.3988C11.5617 4.4425 11.4476 4.46412 11.3327 4.46242H4.33455V11.6034C4.33622 11.7207 4.31503 11.8371 4.27221 11.9459C4.22939 12.0547 4.16578 12.1538 4.08512 12.2373C4.00445 12.3208 3.90833 12.3871 3.80232 12.4323C3.69631 12.4776 3.58254 12.5009 3.46763 12.5009H0.841735C0.725092 12.496 0.610574 12.4674 0.504857 12.4169C0.39914 12.3664 0.304326 12.2949 0.225972 12.2065C0.147617 12.1182 0.0872931 12.0149 0.0484838 11.9026C0.00967461 11.7902 -0.00682787 11.6711 -5.78985e-05 11.5522L-0.0377487 11.6034ZM12.2123 46.424V49.1034C12.2123 49.3415 12.1196 49.5697 11.9546 49.738C11.7897 49.9063 11.566 50.0009 11.3327 50.0009H0.841735C0.60848 50.0009 0.384773 49.9063 0.219837 49.738C0.0549011 49.5697 -0.0377487 49.3415 -0.0377487 49.1034V38.347C-0.0377487 38.109 0.0549011 37.8808 0.219837 37.7125C0.384773 37.5441 0.60848 37.4496 0.841735 37.4496H3.46763C3.58254 37.4496 3.69631 37.4729 3.80232 37.5181C3.90833 37.5634 4.00445 37.6297 4.08512 37.7132C4.16578 37.7967 4.22939 37.8958 4.27221 38.0046C4.31503 38.1134 4.33622 38.2298 4.33455 38.347V45.5009H11.3327C11.4497 45.4939 11.5668 45.5113 11.677 45.5518C11.7872 45.5923 11.8883 45.6552 11.974 45.7367C12.0597 45.8182 12.1284 45.9165 12.1758 46.0259C12.2232 46.1352 12.2484 46.2531 12.2499 46.3727L12.2123 46.424ZM24.4623 6.2573C19.5983 6.26409 14.9357 8.2405 11.4987 11.7525C8.0617 15.2644 6.13121 20.0248 6.13121 24.9881C6.13787 29.9547 8.07609 34.7156 11.5202 38.2252C14.9642 41.7348 19.6326 43.706 24.4999 43.706C29.3654 43.6959 34.0293 41.7218 37.4732 38.2148C40.9171 34.7078 42.8613 29.9528 42.8812 24.9881C42.8862 22.5223 42.4143 20.0798 41.4926 17.8004C40.5709 15.5211 39.2176 13.4497 37.5101 11.7049C35.8025 9.96019 33.7744 8.57637 31.5419 7.63277C29.3094 6.68917 26.9164 6.20432 24.4999 6.20601L24.4623 6.2573ZM30.204 18.5137C30.6986 18.0115 31.3658 17.7263 32.0635 17.7188C32.4084 17.7188 32.7498 17.7881 33.0684 17.9228C33.387 18.0575 33.6765 18.2548 33.9203 18.5036C34.1642 18.7524 34.3576 19.0478 34.4895 19.3729C34.6215 19.698 34.6894 20.0464 34.6894 20.3983C34.6911 20.7507 34.6243 21.0999 34.4929 21.4257C34.3616 21.7516 34.1682 22.0476 33.924 22.2968C33.6799 22.5459 33.3897 22.7432 33.0704 22.8773C32.751 23.0114 32.4088 23.0795 32.0635 23.0778C31.3671 23.0778 30.6992 22.7955 30.2067 22.293C29.7143 21.7905 29.4376 21.109 29.4376 20.3983C29.43 20.036 29.4977 19.6761 29.6363 19.3424C29.7749 19.0087 29.9812 18.7088 30.2417 18.4624L30.204 18.5137ZM16.861 17.7188C17.5564 17.7222 18.2224 18.0056 18.7141 18.5074C19.2058 19.0091 19.4836 19.6887 19.4869 20.3983C19.4869 21.109 19.2102 21.7905 18.7177 22.293C18.2253 22.7955 17.5574 23.0778 16.861 23.0778C16.5156 23.0728 16.1746 22.998 15.8578 22.8578C15.5409 22.7175 15.2545 22.5145 15.015 22.2606C14.7755 22.0067 14.5876 21.7068 14.4624 21.3783C14.3372 21.0499 14.277 20.6994 14.2853 20.347C14.2886 19.6396 14.5646 18.962 15.0536 18.4606C15.5426 17.9591 16.2054 17.6743 16.8987 17.6676L16.861 17.7188ZM35.7071 30.5393C35.5815 30.7701 32.6792 36.3855 24.3994 36.3855C16.1197 36.3855 13.2425 30.7701 13.0917 30.5393C12.9892 30.3278 12.9712 30.0839 13.0415 29.859C13.1118 29.6342 13.265 29.446 13.4687 29.3342C13.6754 29.2262 13.9156 29.206 14.1369 29.2781C14.3581 29.3501 14.5425 29.5086 14.6497 29.7188C14.7627 29.9368 17.2379 34.5906 24.3743 34.5906C31.5107 34.5906 33.9984 29.924 34.0989 29.7188C34.1518 29.6146 34.2246 29.5222 34.3128 29.4469C34.4011 29.3716 34.5032 29.3151 34.6131 29.2805C34.723 29.2459 34.8386 29.2339 34.9531 29.2454C35.0676 29.2568 35.1787 29.2913 35.2799 29.347C35.4831 29.4304 35.6478 29.589 35.741 29.7912C35.8343 29.9933 35.8491 30.2239 35.7825 30.4368L35.7071 30.5393ZM48.9246 0.949605V11.6547C48.9246 11.8927 48.8319 12.121 48.667 12.2893C48.502 12.4576 48.2783 12.5522 48.0451 12.5522H45.4192C45.3043 12.5522 45.1905 12.5289 45.0845 12.4836C44.9785 12.4384 44.8823 12.3721 44.8017 12.2886C44.721 12.205 44.6574 12.106 44.6146 11.9972C44.5718 11.8884 44.5506 11.772 44.5522 11.6547V4.47525H37.554C37.4391 4.47694 37.3251 4.45532 37.2184 4.41162C37.1118 4.36793 37.0147 4.30304 36.9329 4.22072C36.8511 4.13841 36.7861 4.04032 36.7417 3.93215C36.6974 3.82397 36.6745 3.70789 36.6746 3.59063V0.911142C36.6746 0.673128 36.7672 0.444862 36.9321 0.27656C37.0971 0.108258 37.3208 0.0137081 37.554 0.0137081H48.0451C48.1616 0.00320092 48.2791 0.0165339 48.3905 0.0529261C48.502 0.0893183 48.6052 0.148036 48.6941 0.225644C48.783 0.303251 48.8559 0.398186 48.9084 0.504887C48.9609 0.611588 48.992 0.727911 48.9999 0.847041L48.9246 0.949605ZM48.9246 38.4496V49.1547C48.9246 49.3927 48.8319 49.621 48.667 49.7893C48.502 49.9576 48.2783 50.0522 48.0451 50.0522H37.554C37.3208 50.0522 37.0971 49.9576 36.9321 49.7893C36.7672 49.621 36.6746 49.3927 36.6746 49.1547V46.3727C36.6745 46.2554 36.6974 46.1393 36.7417 46.0312C36.7861 45.923 36.8511 45.8249 36.9329 45.7426C37.0147 45.6603 37.1118 45.5954 37.2184 45.5517C37.3251 45.508 37.4391 45.4864 37.554 45.4881H44.5522V38.347C44.5506 38.2298 44.5718 38.1134 44.6146 38.0046C44.6574 37.8958 44.721 37.7967 44.8017 37.7132C44.8823 37.6297 44.9785 37.5634 45.0845 37.5181C45.1905 37.4729 45.3043 37.4496 45.4192 37.4496H48.0451C48.1667 37.4389 48.2893 37.4542 48.4048 37.4945C48.5204 37.5348 48.6265 37.5992 48.7163 37.6836C48.8061 37.7681 48.8777 37.8706 48.9266 37.9849C48.9754 38.0991 49.0004 38.2224 48.9999 38.347L48.9246 38.4496ZM-0.0754395 11.6547V0.949605C-0.0754395 0.71159 0.0172103 0.483325 0.182146 0.315023C0.347082 0.146721 0.570789 0.0521681 0.804044 0.0521681H11.2951C11.5283 0.0521681 11.752 0.146721 11.917 0.315023C12.0819 0.483325 12.1746 0.71159 12.1746 0.949605V3.62909C12.1746 3.74635 12.1517 3.86244 12.1074 3.97061C12.063 4.07878 11.998 4.17687 11.9162 4.25919C11.8344 4.3415 11.7373 4.40639 11.6307 4.45009C11.5241 4.49378 11.41 4.51541 11.2951 4.51371H4.29686V11.6547C4.29853 11.772 4.27734 11.8884 4.23452 11.9972C4.1917 12.106 4.12809 12.205 4.04743 12.2886C3.96676 12.3721 3.87064 12.4384 3.76463 12.4836C3.65862 12.5289 3.54485 12.5522 3.42994 12.5522H0.804044C0.686045 12.5427 0.571147 12.5089 0.466226 12.453C0.361306 12.3971 0.26852 12.3202 0.193438 12.2268C0.118356 12.1334 0.0625039 12.0255 0.029255 11.9096C-0.00399388 11.7937 -0.0139536 11.6721 -5.78985e-05 11.5522L-0.0754395 11.6547ZM12.1746 46.4752V49.1547C12.1746 49.3927 12.0819 49.621 11.917 49.7893C11.752 49.9576 11.5283 50.0522 11.2951 50.0522H0.804044C0.570789 50.0522 0.347082 49.9576 0.182146 49.7893C0.0172103 49.621 -0.0754395 49.3927 -0.0754395 49.1547V38.347C-0.0754395 38.109 0.0172103 37.8808 0.182146 37.7125C0.347082 37.5441 0.570789 37.4496 0.804044 37.4496H3.42994C3.54485 37.4496 3.65862 37.4729 3.76463 37.5181C3.87064 37.5634 3.96676 37.6297 4.04743 37.7132C4.12809 37.7967 4.1917 37.8958 4.23452 38.0046C4.27734 38.1134 4.29853 38.2298 4.29686 38.347V45.5009H11.2951C11.415 45.4884 11.5362 45.5016 11.6509 45.5396C11.7656 45.5776 11.8712 45.6396 11.9611 45.7217C12.051 45.8037 12.1231 45.904 12.1728 46.0161C12.2225 46.1282 12.2488 46.2496 12.2499 46.3727L12.1746 46.4752ZM24.4246 6.30858C19.5758 6.32549 14.9305 8.29934 11.5031 11.7991C8.07565 15.2989 6.14446 20.0403 6.13121 24.9881C6.13787 29.9547 8.07609 34.7156 11.5202 38.2252C14.9642 41.7348 19.6326 43.706 24.4999 43.706C29.3654 43.6959 34.0293 41.7218 37.4732 38.2148C40.9171 34.7078 42.8613 29.9528 42.8812 24.9881C42.8862 22.5223 42.4143 20.0798 41.4926 17.8004C40.5709 15.5211 39.2176 13.4497 37.5101 11.7049C35.8025 9.96019 33.7744 8.57637 31.5419 7.63277C29.3094 6.68917 26.9164 6.20432 24.4999 6.20601L24.4246 6.30858ZM30.1663 18.565C30.6609 18.0628 31.3282 17.7776 32.0258 17.7701C32.7223 17.7701 33.3902 18.0524 33.8826 18.5549C34.3751 19.0574 34.6517 19.739 34.6517 20.4496C34.6534 20.802 34.5866 21.1511 34.4552 21.477C34.3239 21.8029 34.1305 22.0989 33.8863 22.3481C33.6422 22.5972 33.352 22.7945 33.0327 22.9286C32.7133 23.0626 32.3711 23.1308 32.0258 23.1291C31.3294 23.1291 30.6615 22.8468 30.1691 22.3443C29.6766 21.8418 29.3999 21.1602 29.3999 20.4496C29.3897 20.0758 29.4598 19.7042 29.6052 19.3609C29.7506 19.0176 29.9679 18.711 30.2417 18.4624L30.1663 18.565ZM16.8233 17.7701C17.5187 17.7735 18.1847 18.0569 18.6764 18.5586C19.1681 19.0604 19.4459 19.74 19.4492 20.4496C19.4492 21.1602 19.1725 21.8418 18.6801 22.3443C18.1876 22.8468 17.5197 23.1291 16.8233 23.1291C16.4768 23.1192 16.1356 23.0391 15.8197 22.8934C15.5039 22.7477 15.2195 22.5393 14.9833 22.2804C14.7471 22.0215 14.5638 21.7172 14.4439 21.3853C14.3241 21.0534 14.2702 20.7004 14.2853 20.347C14.2886 19.6396 14.5646 18.962 15.0536 18.4606C15.5426 17.9591 16.2054 17.6743 16.8987 17.6676L16.8233 17.7701ZM35.6694 30.5906C35.5438 30.8214 32.6415 36.4368 24.3617 36.4368C16.082 36.4368 13.2048 30.8214 13.054 30.5906C12.9515 30.3791 12.9335 30.1352 13.0038 29.9103C13.0741 29.6855 13.2273 29.4973 13.431 29.3855C13.6377 29.2775 13.8779 29.2573 14.0992 29.3294C14.3205 29.4014 14.5048 29.5599 14.612 29.7701C14.7251 29.9881 17.2002 34.6419 24.3366 34.6419C31.473 34.6419 33.9607 29.9752 34.0612 29.7701C34.1141 29.6659 34.1868 29.5735 34.2751 29.4982C34.3634 29.4229 34.4655 29.3664 34.5754 29.3317C34.6853 29.2971 34.8009 29.2852 34.9154 29.2966C35.0299 29.3081 35.141 29.3426 35.2422 29.3983C35.4413 29.4738 35.6063 29.6213 35.7059 29.8127C35.8055 30.0041 35.8328 30.2262 35.7825 30.4368L35.6694 30.5906ZM48.8869 1.00089V11.706C48.8869 11.944 48.7942 12.1723 48.6293 12.3406C48.4643 12.5089 48.2406 12.6034 48.0074 12.6034H45.3815C45.2666 12.6035 45.1528 12.5802 45.0468 12.5349C44.9408 12.4897 44.8447 12.4233 44.764 12.3398C44.6833 12.2563 44.6197 12.1573 44.5769 12.0485C44.5341 11.9397 44.5129 11.8233 44.5146 11.706V4.47525H37.5163C37.4014 4.47694 37.2874 4.45532 37.1807 4.41162C37.0741 4.36793 36.977 4.30304 36.8952 4.22072C36.8134 4.13841 36.7484 4.04032 36.704 3.93215C36.6597 3.82397 36.6369 3.70789 36.6369 3.59063V0.911142C36.6369 0.673128 36.7295 0.444862 36.8945 0.27656C37.0594 0.108258 37.2831 0.0137081 37.5163 0.0137081H48.0074C48.1269 -0.00234831 48.2483 0.00683027 48.3642 0.0406751C48.4801 0.0745199 48.5879 0.132307 48.681 0.210451C48.7741 0.288595 48.8504 0.385428 48.9053 0.494937C48.9601 0.604446 48.9924 0.724293 48.9999 0.847041L48.8869 1.00089ZM48.8869 38.5009V49.206C48.8869 49.444 48.7942 49.6723 48.6293 49.8406C48.4643 50.0089 48.2406 50.1034 48.0074 50.1034H37.5163C37.2831 50.1034 37.0594 50.0089 36.8945 49.8406C36.7295 49.6723 36.6369 49.444 36.6369 49.206V46.3727C36.6369 46.2554 36.6597 46.1393 36.704 46.0312C36.7484 45.923 36.8134 45.8249 36.8952 45.7426C36.977 45.6603 37.0741 45.5954 37.1807 45.5517C37.2874 45.508 37.4014 45.4864 37.5163 45.4881H44.5146V38.347C44.5129 38.2298 44.5341 38.1134 44.5769 38.0046C44.6197 37.8958 44.6833 37.7967 44.764 37.7132C44.8447 37.6297 44.9408 37.5634 45.0468 37.5181C45.1528 37.4729 45.2666 37.4496 45.3815 37.4496H48.0074C48.132 37.4331 48.2586 37.4441 48.3787 37.4817C48.4989 37.5194 48.6097 37.5829 48.7038 37.6679C48.7978 37.7529 48.8729 37.8575 48.924 37.9747C48.9751 38.0919 49.001 38.2188 48.9999 38.347L48.8869 38.5009Z" fill="#00C0FF"/>
</svg>
