<svg id="Layer_2" height="512" viewBox="0 0 512 512" width="512" xmlns="http://www.w3.org/2000/svg" xmlns:xlink="http://www.w3.org/1999/xlink" data-name="Layer 2"><linearGradient id="linear-gradient" gradientUnits="userSpaceOnUse" x1="43.93" x2="468.07" y1="43.93" y2="468.07"><stop offset="0" stop-color="#2492ff"/><stop offset="1" stop-color="#00C0FF"/></linearGradient><g id="Icon"><path id="_43" d="m362 0h-212c-82.84 0-150 67.16-150 150v212c0 82.84 67.16 150 150 150h212c82.84 0 150-67.16 150-150v-212c0-82.84-67.16-150-150-150zm-198.92 170.64 78.78-78.78c3.78-3.78 8.8-5.86 14.14-5.86s10.36 2.08 14.14 5.86l78.78 78.78c7.8 7.8 7.8 20.49 0 28.28-3.78 3.78-8.8 5.86-14.14 5.86s-10.36-2.08-14.14-5.86l-44.64-44.64v171.72c0 11.03-8.97 20-20 20s-20-8.97-20-20v-171.72l-44.64 44.64c-3.78 3.78-8.8 5.86-14.14 5.86s-10.36-2.08-14.14-5.86-5.86-8.8-5.86-14.14 2.08-10.36 5.86-14.14zm272.92 235.36c0 11.03-8.97 20-20 20h-320c-11.03 0-20-8.97-20-20v-70c0-11.03 8.97-20 20-20s20 8.97 20 20v50h280v-50c0-11.03 8.97-20 20-20s20 8.97 20 20z" fill="url(#linear-gradient)" data-name="43"/></g></svg>