<svg width="47" height="37" viewBox="0 0 47 37" fill="none" xmlns="http://www.w3.org/2000/svg">
<g clip-path="url(#clip0_40_67)">
<path d="M10.2812 -0.110107C10.9669 -0.110107 11.5614 0.352333 11.7134 1.00402L12.254 3.32095C12.6299 4.93202 13.9206 6.19006 15.5735 6.5564L17.9507 7.08328C18.6193 7.23144 19.0938 7.81086 19.0938 8.47918C19.0938 9.1475 18.6193 9.72691 17.9507 9.87508L15.5735 10.402C13.9206 10.7683 12.6299 12.0263 12.254 13.6374L11.7134 15.9544C11.5614 16.606 10.9669 17.0685 10.2812 17.0685C9.59556 17.0685 9.00109 16.606 8.84907 15.9544L8.3085 13.6374C7.93265 12.0263 6.6419 10.7683 4.98895 10.402L2.61183 9.87508C1.94321 9.72691 1.46875 9.1475 1.46875 8.47918C1.46875 7.81086 1.94321 7.23144 2.61183 7.08328L4.98895 6.5564C6.6419 6.19006 7.93265 4.93202 8.3085 3.32095L8.84907 1.00402C9.00109 0.352333 9.59556 -0.110107 10.2812 -0.110107Z" fill="#00C0FF"/>
<path d="M2.12334 11.9689L4.50046 12.4958C5.32693 12.679 5.97231 13.308 6.16025 14.1135L6.70078 16.4304C7.08087 18.0596 8.567 19.2158 10.2812 19.2158C11.9955 19.2158 13.4817 18.0596 13.8617 16.4304L14.4023 14.1135C14.5902 13.308 15.2356 12.679 16.062 12.4958L18.4391 11.9689C20.1107 11.5985 21.2969 10.15 21.2969 8.47916C21.2969 7.97375 21.1883 7.48867 20.9906 7.04761H30.8438C34.0309 7.04761 36.6252 9.52111 36.7163 12.606L39.1545 11.4178C42.0842 9.99008 45.5312 12.0665 45.5312 15.259V28.8987C45.5312 32.0912 42.0842 34.1676 39.1545 32.7399L36.7163 31.5517C36.6252 34.6366 34.0309 37.1101 30.8438 37.1101H7.34375C4.09908 37.1101 1.46875 34.5464 1.46875 31.3839V12.7738C1.46875 12.44 1.49806 12.1129 1.5543 11.7947C1.73649 11.8668 1.92655 11.9253 2.12334 11.9689Z" fill="#00C0FF"/>
</g>
<defs>
<clipPath id="clip0_40_67">
<rect width="47" height="37" fill="white"/>
</clipPath>
</defs>
</svg>
