<svg width="175" height="24" viewBox="0 0 175 24" fill="none" xmlns="http://www.w3.org/2000/svg">
<path d="M0 6.3125H4.04688V8.57812C5.49479 6.81771 7.21875 5.9375 9.21875 5.9375C10.2812 5.9375 11.2031 6.15625 11.9844 6.59375C12.7656 7.03125 13.4062 7.69271 13.9062 8.57812C14.6354 7.69271 15.4219 7.03125 16.2656 6.59375C17.1094 6.15625 18.0104 5.9375 18.9688 5.9375C20.1875 5.9375 21.2188 6.1875 22.0625 6.6875C22.9062 7.17708 23.5365 7.90104 23.9531 8.85938C24.2552 9.56771 24.4062 10.7135 24.4062 12.2969V22.9062H20.0156V13.4219C20.0156 11.776 19.8646 10.7135 19.5625 10.2344C19.1562 9.60938 18.5312 9.29688 17.6875 9.29688C17.0729 9.29688 16.4948 9.48438 15.9531 9.85938C15.4115 10.2344 15.0208 10.7865 14.7812 11.5156C14.5417 12.2344 14.4219 13.375 14.4219 14.9375V22.9062H10.0312V13.8125C10.0312 12.1979 9.95312 11.1562 9.79688 10.6875C9.64062 10.2188 9.39583 9.86979 9.0625 9.64062C8.73958 9.41146 8.29688 9.29688 7.73438 9.29688C7.05729 9.29688 6.44792 9.47917 5.90625 9.84375C5.36458 10.2083 4.97396 10.7344 4.73438 11.4219C4.50521 12.1094 4.39062 13.25 4.39062 14.8438V22.9062H0V6.3125ZM27.25 18.1719L31.6562 17.5C31.8438 18.3542 32.224 19.0052 32.7969 19.4531C33.3698 19.8906 34.1719 20.1094 35.2031 20.1094C36.3385 20.1094 37.1927 19.901 37.7656 19.4844C38.151 19.1927 38.3438 18.8021 38.3438 18.3125C38.3438 17.9792 38.2396 17.7031 38.0312 17.4844C37.8125 17.276 37.3229 17.0833 36.5625 16.9062C33.0208 16.125 30.776 15.4115 29.8281 14.7656C28.5156 13.8698 27.8594 12.625 27.8594 11.0312C27.8594 9.59375 28.4271 8.38542 29.5625 7.40625C30.6979 6.42708 32.4583 5.9375 34.8438 5.9375C37.1146 5.9375 38.8021 6.30729 39.9062 7.04688C41.0104 7.78646 41.7708 8.88021 42.1875 10.3281L38.0469 11.0938C37.8698 10.4479 37.5312 9.95312 37.0312 9.60938C36.5417 9.26562 35.8385 9.09375 34.9219 9.09375C33.7656 9.09375 32.9375 9.25521 32.4375 9.57812C32.1042 9.80729 31.9375 10.1042 31.9375 10.4688C31.9375 10.7812 32.0833 11.0469 32.375 11.2656C32.7708 11.5573 34.1354 11.9688 36.4688 12.5C38.8125 13.0312 40.4479 13.6823 41.375 14.4531C42.2917 15.2344 42.75 16.3229 42.75 17.7188C42.75 19.2396 42.1146 20.5469 40.8438 21.6406C39.5729 22.7344 37.6927 23.2812 35.2031 23.2812C32.9427 23.2812 31.151 22.8229 29.8281 21.9062C28.5156 20.9896 27.6562 19.7448 27.25 18.1719ZM49.8906 11.375L45.9062 10.6562C46.3542 9.05208 47.125 7.86458 48.2188 7.09375C49.3125 6.32292 50.9375 5.9375 53.0938 5.9375C55.0521 5.9375 56.5104 6.17188 57.4688 6.64062C58.4271 7.09896 59.099 7.6875 59.4844 8.40625C59.8802 9.11458 60.0781 10.4219 60.0781 12.3281L60.0312 17.4531C60.0312 18.9115 60.099 19.9896 60.2344 20.6875C60.3802 21.375 60.6458 22.1146 61.0312 22.9062H56.6875C56.5729 22.6146 56.4323 22.1823 56.2656 21.6094C56.1927 21.349 56.1406 21.1771 56.1094 21.0938C55.3594 21.8229 54.5573 22.3698 53.7031 22.7344C52.849 23.099 51.9375 23.2812 50.9688 23.2812C49.2604 23.2812 47.9115 22.8177 46.9219 21.8906C45.9427 20.9635 45.4531 19.7917 45.4531 18.375C45.4531 17.4375 45.6771 16.6042 46.125 15.875C46.5729 15.1354 47.1979 14.5729 48 14.1875C48.8125 13.7917 49.9792 13.4479 51.5 13.1562C53.5521 12.7708 54.974 12.4115 55.7656 12.0781V11.6406C55.7656 10.7969 55.5573 10.1979 55.1406 9.84375C54.724 9.47917 53.9375 9.29688 52.7812 9.29688C52 9.29688 51.3906 9.45312 50.9531 9.76562C50.5156 10.0677 50.1615 10.6042 49.8906 11.375ZM55.7656 14.9375C55.2031 15.125 54.3125 15.349 53.0938 15.6094C51.875 15.8698 51.0781 16.125 50.7031 16.375C50.1302 16.7812 49.8438 17.2969 49.8438 17.9219C49.8438 18.5365 50.0729 19.0677 50.5312 19.5156C50.9896 19.9635 51.5729 20.1875 52.2812 20.1875C53.0729 20.1875 53.8281 19.9271 54.5469 19.4062C55.0781 19.0104 55.4271 18.526 55.5938 17.9531C55.7083 17.5781 55.7656 16.8646 55.7656 15.8125V14.9375ZM64.4219 4.0625V0H68.8125V4.0625H64.4219ZM64.4219 22.9062V6.3125H68.8125V22.9062H64.4219ZM73.3281 22.9062V18.5156H77.7188V22.9062H73.3281ZM80.6875 18.1719L85.0938 17.5C85.2812 18.3542 85.6615 19.0052 86.2344 19.4531C86.8073 19.8906 87.6094 20.1094 88.6406 20.1094C89.776 20.1094 90.6302 19.901 91.2031 19.4844C91.5885 19.1927 91.7812 18.8021 91.7812 18.3125C91.7812 17.9792 91.6771 17.7031 91.4688 17.4844C91.25 17.276 90.7604 17.0833 90 16.9062C86.4583 16.125 84.2135 15.4115 83.2656 14.7656C81.9531 13.8698 81.2969 12.625 81.2969 11.0312C81.2969 9.59375 81.8646 8.38542 83 7.40625C84.1354 6.42708 85.8958 5.9375 88.2812 5.9375C90.5521 5.9375 92.2396 6.30729 93.3438 7.04688C94.4479 7.78646 95.2083 8.88021 95.625 10.3281L91.4844 11.0938C91.3073 10.4479 90.9688 9.95312 90.4688 9.60938C89.9792 9.26562 89.276 9.09375 88.3594 9.09375C87.2031 9.09375 86.375 9.25521 85.875 9.57812C85.5417 9.80729 85.375 10.1042 85.375 10.4688C85.375 10.7812 85.5208 11.0469 85.8125 11.2656C86.2083 11.5573 87.5729 11.9688 89.9062 12.5C92.25 13.0312 93.8854 13.6823 94.8125 14.4531C95.7292 15.2344 96.1875 16.3229 96.1875 17.7188C96.1875 19.2396 95.5521 20.5469 94.2812 21.6406C93.0104 22.7344 91.1302 23.2812 88.6406 23.2812C86.3802 23.2812 84.5885 22.8229 83.2656 21.9062C81.9531 20.9896 81.0938 19.7448 80.6875 18.1719ZM107.656 6.3125V9.8125H104.656V16.5C104.656 17.8542 104.682 18.6458 104.734 18.875C104.797 19.0938 104.927 19.276 105.125 19.4219C105.333 19.5677 105.583 19.6406 105.875 19.6406C106.281 19.6406 106.87 19.5 107.641 19.2188L108.016 22.625C106.995 23.0625 105.839 23.2812 104.547 23.2812C103.755 23.2812 103.042 23.151 102.406 22.8906C101.771 22.6198 101.302 22.276 101 21.8594C100.708 21.4323 100.505 20.8594 100.391 20.1406C100.297 19.6302 100.25 18.599 100.25 17.0469V9.8125H98.2344V6.3125H100.25V3.01562L104.656 0.453125V6.3125H107.656ZM121.625 22.9062V20.4219C121.021 21.3073 120.224 22.0052 119.234 22.5156C118.255 23.026 117.219 23.2812 116.125 23.2812C115.01 23.2812 114.01 23.0365 113.125 22.5469C112.24 22.0573 111.599 21.3698 111.203 20.4844C110.807 19.599 110.609 18.375 110.609 16.8125V6.3125H115V13.9375C115 16.2708 115.078 17.7031 115.234 18.2344C115.401 18.7552 115.698 19.1719 116.125 19.4844C116.552 19.7865 117.094 19.9375 117.75 19.9375C118.5 19.9375 119.172 19.7344 119.766 19.3281C120.359 18.9115 120.766 18.401 120.984 17.7969C121.203 17.1823 121.312 15.6875 121.312 13.3125V6.3125H125.703V22.9062H121.625ZM145.484 22.9062H141.406V20.4688C140.729 21.4167 139.927 22.125 139 22.5938C138.083 23.0521 137.156 23.2812 136.219 23.2812C134.312 23.2812 132.677 22.5156 131.312 20.9844C129.958 19.4427 129.281 17.2969 129.281 14.5469C129.281 11.7344 129.943 9.59896 131.266 8.14062C132.589 6.67188 134.26 5.9375 136.281 5.9375C138.135 5.9375 139.74 6.70833 141.094 8.25V0H145.484V22.9062ZM133.766 14.25C133.766 16.0208 134.01 17.3021 134.5 18.0938C135.208 19.2396 136.198 19.8125 137.469 19.8125C138.479 19.8125 139.339 19.3854 140.047 18.5312C140.755 17.6667 141.109 16.3802 141.109 14.6719C141.109 12.7656 140.766 11.3958 140.078 10.5625C139.391 9.71875 138.51 9.29688 137.438 9.29688C136.396 9.29688 135.521 9.71354 134.812 10.5469C134.115 11.3698 133.766 12.6042 133.766 14.25ZM149.828 4.0625V0H154.219V4.0625H149.828ZM149.828 22.9062V6.3125H154.219V22.9062H149.828ZM157.719 14.375C157.719 12.9167 158.078 11.5052 158.797 10.1406C159.516 8.77604 160.531 7.73438 161.844 7.01562C163.167 6.29688 164.641 5.9375 166.266 5.9375C168.776 5.9375 170.833 6.75521 172.438 8.39062C174.042 10.0156 174.844 12.0729 174.844 14.5625C174.844 17.0729 174.031 19.1562 172.406 20.8125C170.792 22.4583 168.755 23.2812 166.297 23.2812C164.776 23.2812 163.323 22.9375 161.938 22.25C160.562 21.5625 159.516 20.5573 158.797 19.2344C158.078 17.901 157.719 16.2812 157.719 14.375ZM162.219 14.6094C162.219 16.2552 162.609 17.5156 163.391 18.3906C164.172 19.2656 165.135 19.7031 166.281 19.7031C167.427 19.7031 168.385 19.2656 169.156 18.3906C169.938 17.5156 170.328 16.2448 170.328 14.5781C170.328 12.9531 169.938 11.7031 169.156 10.8281C168.385 9.95312 167.427 9.51562 166.281 9.51562C165.135 9.51562 164.172 9.95312 163.391 10.8281C162.609 11.7031 162.219 12.9635 162.219 14.6094Z" fill="url(#paint0_linear_40_35)"/>
<defs>
<linearGradient id="paint0_linear_40_35" x1="-1.96875" y1="11.4062" x2="176.031" y2="11.4062" gradientUnits="userSpaceOnUse">
<stop stop-color="#155DFC"/>
<stop offset="1" stop-color="#53EDEF"/>
</linearGradient>
</defs>
</svg>
