<svg width="40" height="40" viewBox="0 0 40 40" fill="none" xmlns="http://www.w3.org/2000/svg">
<g clip-path="url(#clip0_40_47)">
<path d="M40 20C40 31.0458 31.0458 40 20 40C8.95416 40 0 31.0458 0 20C0 8.95416 8.95416 0 20 0C31.0458 0 40 8.95416 40 20Z" fill="#00C0FF"/>
<path d="M24.5472 19.3701C26.3843 17.9865 27.5745 15.788 27.5745 13.3163C27.5745 9.14001 24.1767 5.74219 20.0001 5.74219C15.8237 5.74219 12.4259 9.14001 12.4259 13.3163C12.4259 15.788 13.6158 17.9865 15.4529 19.3701C10.5341 21.2164 7.02368 25.9674 7.02368 31.5234H9.36743C9.36743 25.6604 14.1373 20.8908 20.0004 20.8908C25.8631 20.8908 30.633 25.6604 30.633 31.5234H32.9767C32.9764 25.9674 29.4663 21.2164 24.5472 19.3701ZM14.7697 13.3163C14.7697 10.4321 17.1158 8.08594 20.0001 8.08594C22.8843 8.08594 25.2305 10.4321 25.2305 13.3163C25.2305 16.2006 22.8843 18.5471 20.0001 18.5471C17.1158 18.5471 14.7697 16.2006 14.7697 13.3163Z" fill="#1E1E1E"/>
</g>
<defs>
<clipPath id="clip0_40_47">
<rect width="40" height="40" fill="white"/>
</clipPath>
</defs>
</svg>
